<svg width="96" height="96" viewBox="0 0 96 96" fill="none" xmlns="http://www.w3.org/2000/svg">
<rect width="96" height="96" rx="13.3333" fill="#005284"/>
<path d="M48 24C57.587 24 62.3813 23.9997 65.834 26.2842C67.3757 27.3043 68.6957 28.6253 69.7158 30.167C72.0003 33.6196 72 38.413 72 48C72 57.587 72.0003 62.3804 69.7158 65.833C68.6957 67.3747 67.3757 68.6957 65.834 69.7158C62.3813 72.0003 57.587 72 48 72C38.4132 72 33.6196 72.0003 30.167 69.7158C28.6252 68.6957 27.3053 67.3748 26.2852 65.833C24.0007 62.3804 24 57.587 24 48C24 38.413 24.0007 33.6196 26.2852 30.167C27.3053 28.6252 28.6252 27.3043 30.167 26.2842C33.6196 23.9997 38.4132 24 48 24ZM47.999 35.5752C41.1368 35.5752 35.5742 41.1388 35.5742 48.001C35.5744 54.863 41.137 60.4258 47.999 60.4258C54.861 60.4257 60.4236 54.8629 60.4238 48.001C60.4238 41.1388 54.8612 35.5753 47.999 35.5752ZM47.999 39.7793C52.5395 39.7794 56.2207 43.4605 56.2207 48.001C56.2205 52.5413 52.5393 56.2216 47.999 56.2217C43.4586 56.2217 39.7776 52.5413 39.7773 48.001C39.7773 43.4605 43.4585 39.7793 47.999 39.7793ZM60.915 32.0312C59.3027 32.0312 57.9953 33.3379 57.9951 34.9502C57.9951 36.5626 59.3026 37.8701 60.915 37.8701C62.5273 37.8699 63.834 36.5625 63.834 34.9502C63.8338 33.3381 62.5272 32.0315 60.915 32.0312Z" fill="#F2F1FA"/>
</svg>
