<svg width="96" height="96" viewBox="0 0 96 96" fill="none" xmlns="http://www.w3.org/2000/svg">
<rect width="96" height="96" rx="13.3333" fill="#005284"/>
<path d="M56.0721 28.537V28.5283H58.3228L59.1452 28.6926C59.6934 28.7992 60.1912 28.9389 60.6384 29.1118C61.0857 29.2847 61.5185 29.4864 61.9369 29.7169C62.3553 29.9474 62.7347 30.1823 63.0752 30.4215C63.4128 30.6578 63.7158 30.9084 63.9842 31.1735C64.2496 31.4415 64.6637 31.5107 65.2263 31.381C65.789 31.2513 66.395 31.0712 67.0442 30.8407C67.6934 30.6102 68.3355 30.3509 68.9702 30.0627C69.6051 29.7746 69.9917 29.5916 70.1303 29.5138C70.2659 29.4331 70.338 29.3899 70.3467 29.3841L70.3553 29.3712L70.3986 29.3495L70.4418 29.3279L70.4851 29.3063L70.5284 29.2847L70.5371 29.2717L70.55 29.2631L70.5631 29.2545L70.5717 29.2415L70.615 29.2285L70.6583 29.2199L70.6496 29.2847L70.6366 29.3495L70.615 29.4144L70.5933 29.4792L70.5717 29.5224L70.55 29.5657L70.5284 29.6305C70.514 29.6737 70.4996 29.7313 70.4851 29.8034C70.4707 29.8754 70.3336 30.1636 70.0739 30.6678C69.8142 31.1721 69.4896 31.6836 69.1001 32.2022C68.7106 32.7209 68.3614 33.1127 68.0527 33.3779C67.7411 33.6459 67.5347 33.8331 67.4337 33.9398C67.3327 34.0493 67.2101 34.1501 67.0658 34.2423L66.8494 34.385L66.8061 34.4066L66.7629 34.4282L66.7542 34.4411L66.7412 34.4498L66.7282 34.4584L66.7196 34.4714L66.6763 34.493L66.633 34.5146L66.6244 34.5276L66.6114 34.5362L66.5984 34.5449L66.5897 34.5578L66.5811 34.5708L66.5681 34.5795L66.5551 34.5881L66.5464 34.6011H66.7629L67.9748 34.3417C68.7827 34.1688 69.5546 33.96 70.2904 33.715L71.459 33.326L71.5888 33.2828L71.6537 33.2612L71.697 33.2396L71.7403 33.218L71.7836 33.1963L71.8269 33.1747L71.9134 33.1618L72 33.1531V33.2396L71.9784 33.2482L71.9567 33.2612L71.9481 33.2741L71.9351 33.2828L71.9221 33.2914L71.9134 33.3044L71.9048 33.3174L71.8918 33.326L71.8788 33.3347L71.8702 33.3476L71.8615 33.3606L71.8485 33.3692L71.8269 33.4125L71.8052 33.4557L71.7922 33.4643C71.7865 33.473 71.6033 33.7179 71.2426 34.1991C70.8819 34.6832 70.6871 34.9281 70.6583 34.9339C70.6294 34.9425 70.589 34.9858 70.5371 35.0636C70.488 35.1442 70.1821 35.4655 69.6195 36.0274C69.0568 36.5893 68.5057 37.0892 67.9661 37.5272C67.4237 37.9681 67.1495 38.5098 67.1438 39.1524C67.1351 39.7921 67.1019 40.5154 67.0442 41.3222C66.9865 42.129 66.8783 43.0006 66.7196 43.9371C66.5609 44.8736 66.3156 45.9326 65.9838 47.114C65.652 48.2954 65.248 49.448 64.7719 50.5718C64.2958 51.6955 63.798 52.704 63.2786 53.5973C62.7592 54.4906 62.2831 55.247 61.8503 55.8665C61.4175 56.486 60.9775 57.0695 60.5302 57.617C60.083 58.1645 59.5174 58.7812 58.8336 59.4669C58.1468 60.1498 57.7717 60.5245 57.7083 60.5907C57.6419 60.6541 57.3591 60.8904 56.8599 61.2996C56.3636 61.7116 55.8298 62.1236 55.2584 62.5357C54.69 62.9449 54.1677 63.2864 53.6916 63.5601C53.2155 63.8338 52.6413 64.1465 51.969 64.498C51.2996 64.8524 50.5753 65.1809 49.7962 65.4835C49.0171 65.786 48.1948 66.067 47.3291 66.3263C46.4635 66.5857 45.6267 66.7874 44.8188 66.9314C44.0108 67.0755 43.0947 67.198 42.0703 67.2988L40.5338 67.4501V67.4717H37.7205V67.4501L37.3526 67.4285C37.1073 67.4141 36.9053 67.3997 36.7466 67.3853C36.5879 67.3709 35.9892 67.2916 34.9504 67.1476C33.9116 67.0035 33.0965 66.8594 32.505 66.7153C31.9135 66.5713 31.0334 66.2975 29.8647 65.8941C28.6961 65.4907 27.6963 65.083 26.8653 64.6709C26.0372 64.2617 25.5178 64.0024 25.3071 63.8929C25.0994 63.7863 24.8656 63.6538 24.606 63.4953L24.2164 63.2575L24.2078 63.2446L24.1948 63.2359L24.1818 63.2273L24.1731 63.2143L24.1298 63.1927L24.0866 63.1711L24.078 63.1581L24.0649 63.1495L24.0519 63.1408L24.0433 63.1279L24.0347 63.1149L24.0216 63.1063H24V63.0198L24.0433 63.0285L24.0866 63.0414L24.2813 63.063C24.4112 63.0774 24.7647 63.099 25.3417 63.1279C25.9189 63.1567 26.532 63.1567 27.1812 63.1279C27.8305 63.099 28.4942 63.0342 29.1722 62.9334C29.8503 62.8325 30.6511 62.6596 31.5744 62.4147C32.4978 62.1698 33.3461 61.8787 34.1194 61.5416C34.8899 61.2016 35.4381 60.948 35.7642 60.7809C36.0873 60.6166 36.5807 60.3112 37.2444 59.8646L38.2399 59.1946L38.2485 59.1817L38.2615 59.173L38.2745 59.1644L38.2831 59.1514L38.2918 59.1384L38.3048 59.1298L38.3178 59.1212L38.3264 59.1082L38.3697 59.0952L38.413 59.0866L38.4216 59.0434L38.4346 59.0001L38.4477 58.9915L38.4563 58.9785L38.11 58.9569C37.8792 58.9425 37.6555 58.9281 37.4391 58.9137C37.2227 58.8993 36.8837 58.8345 36.422 58.7192C35.9604 58.6039 35.4626 58.431 34.9288 58.2005C34.395 57.97 33.8756 57.6962 33.3706 57.3793C32.8657 57.0623 32.5006 56.7986 32.2756 56.5883C32.0534 56.3808 31.7648 56.0869 31.4099 55.7066C31.0579 55.3234 30.752 54.93 30.4923 54.5266C30.2326 54.1232 29.9845 53.6578 29.7479 53.1305L29.3886 52.3439L29.367 52.279L29.3454 52.2142L29.3324 52.171L29.3237 52.1278L29.3886 52.1364L29.4536 52.1494L29.9297 52.2142C30.2471 52.2574 30.7448 52.2718 31.4229 52.2574C32.101 52.243 32.5699 52.2142 32.8296 52.171C33.0893 52.1278 33.248 52.0989 33.3057 52.0845L33.3922 52.0629L33.5005 52.0413L33.6087 52.0197L33.6173 52.0067L33.6303 51.9981L33.6433 51.9895L33.6519 51.9765L33.5654 51.9549L33.4788 51.9333L33.3922 51.9117L33.3057 51.89L33.2191 51.8684C33.1614 51.854 33.0604 51.8252 32.9161 51.782C32.7719 51.7388 32.3823 51.5803 31.7475 51.3065C31.1127 51.0328 30.6078 50.7663 30.2326 50.5069C29.8566 50.2468 29.498 49.9624 29.1592 49.6554C28.8216 49.3442 28.4509 48.9437 28.0469 48.4539C27.6429 47.964 27.2823 47.3949 26.9648 46.7466C26.6474 46.0982 26.4094 45.4787 26.2507 44.888C26.0926 44.3008 25.9883 43.7004 25.9391 43.0943L25.8611 42.1866L25.9044 42.1953L25.9477 42.2082L25.991 42.2298L26.0343 42.2514L26.0775 42.2731L26.1208 42.2947L26.7917 42.5972C27.239 42.7989 27.7944 42.9718 28.4581 43.1159C29.1218 43.2599 29.5185 43.3392 29.6483 43.3536L29.8431 43.3752H30.2326L30.224 43.3623L30.211 43.3536L30.198 43.345L30.1894 43.332L30.1807 43.319L30.1677 43.3104L30.1547 43.3017L30.1461 43.2888L30.1028 43.2672L30.0595 43.2456L30.0509 43.2326L30.0379 43.2239L30.0249 43.2153L30.0162 43.2023L29.9729 43.1807L29.9297 43.1591L29.9211 43.1461C29.9124 43.1404 29.7883 43.0482 29.5488 42.8695C29.3122 42.688 29.064 42.4532 28.8043 42.165C28.5446 41.8768 28.2849 41.5743 28.0252 41.2573C27.7651 40.9396 27.5333 40.5998 27.3327 40.2416C27.1308 39.8814 26.9172 39.4232 26.6922 38.8671C26.47 38.3139 26.3012 37.7563 26.1858 37.1944C26.0704 36.6325 26.0054 36.0779 25.991 35.5304C25.9766 34.9829 25.991 34.5146 26.0343 34.1256C26.0775 33.7366 26.1641 33.2972 26.294 32.8073C26.4238 32.3175 26.6114 31.7988 26.8566 31.2513L27.2245 30.4301L27.2462 30.3653L27.2678 30.3004L27.2808 30.2918L27.2895 30.2788L27.2981 30.2659L27.3111 30.2572L27.3241 30.2659L27.3327 30.2788L27.3414 30.2918L27.3544 30.3004L27.3674 30.3091L27.376 30.3221L27.3847 30.335L27.3977 30.3437L27.4193 30.3869L27.4409 30.4301L27.454 30.4388L27.4626 30.4517L28.0469 31.1001C28.4364 31.5323 28.8981 32.0149 29.4319 32.548C29.9658 33.0811 30.2615 33.3577 30.3192 33.3779C30.3769 33.4009 30.4491 33.4672 30.5356 33.5767C30.6222 33.6833 30.9107 33.9383 31.4013 34.3417C31.8918 34.7451 32.5338 35.2134 33.3273 35.7465C34.1209 36.2795 35.0009 36.8054 35.9675 37.3241C36.9342 37.8428 37.973 38.311 39.0839 38.7288C40.1948 39.1466 40.9739 39.4204 41.4211 39.55C41.8684 39.6797 42.633 39.8454 43.7151 40.0471C44.7971 40.2488 45.6123 40.3785 46.1605 40.4361C46.7088 40.4937 47.0839 40.5269 47.2858 40.5355L47.5888 40.5442L47.5802 40.4793L47.5672 40.4145L47.4806 39.8742C47.4229 39.514 47.394 39.0098 47.394 38.3614C47.394 37.7131 47.4446 37.1152 47.5455 36.5677C47.6466 36.0202 47.798 35.4655 48 34.9036C48.202 34.3417 48.3997 33.8908 48.593 33.5508C48.7892 33.2136 49.046 32.829 49.3634 32.3967C49.6808 31.9645 50.092 31.5179 50.5969 31.0568C51.1019 30.5958 51.679 30.1852 52.3282 29.825C52.9775 29.4648 53.5762 29.191 54.1244 29.0038C54.6727 28.8165 55.1344 28.694 55.5095 28.6364C55.8846 28.5788 56.0721 28.5456 56.0721 28.537V28.537Z" fill="#F2F1FA"/>
</svg>
